<?xml version="1.0" encoding="UTF-8" standalone="no"?>
<svg
   xmlns:dc="http://purl.org/dc/elements/1.1/"
   xmlns:cc="http://creativecommons.org/ns#"
   xmlns:rdf="http://www.w3.org/1999/02/22-rdf-syntax-ns#"
   xmlns:svg="http://www.w3.org/2000/svg"
   xmlns="http://www.w3.org/2000/svg"
   xmlns:sodipodi="http://sodipodi.sourceforge.net/DTD/sodipodi-0.dtd"
   xmlns:inkscape="http://www.inkscape.org/namespaces/inkscape"
   width="55.052505mm"
   height="8.08564mm"
   viewBox="0 0 55.052505 8.08564"
   version="1.1"
   id="svg8"
   inkscape:version="1.0.1 (3bc2e813f5, 2020-09-07)"
   sodipodi:docname="rafflist.svg">
  <defs
     id="defs2" />
  <sodipodi:namedview
     id="base"
     pagecolor="#888888"
     bordercolor="#666666"
     borderopacity="1.0"
     inkscape:pageopacity="0"
     inkscape:pageshadow="2"
     inkscape:zoom="1.4"
     inkscape:cx="113.98295"
     inkscape:cy="-24.89533"
     inkscape:document-units="mm"
     inkscape:current-layer="layer1"
     inkscape:document-rotation="0"
     showgrid="false"
     fit-margin-top="0"
     fit-margin-left="0"
     fit-margin-right="0"
     fit-margin-bottom="0"
     inkscape:window-width="1458"
     inkscape:window-height="1043"
     inkscape:window-x="50"
     inkscape:window-y="0"
     inkscape:window-maximized="0" />
  <metadata
     id="metadata5">
    <rdf:RDF>
      <cc:Work
         rdf:about="">
        <dc:format>image/svg+xml</dc:format>
        <dc:type
           rdf:resource="http://purl.org/dc/dcmitype/StillImage" />
        <dc:title></dc:title>
      </cc:Work>
    </rdf:RDF>
  </metadata>
  <g
     inkscape:label="Layer 1"
     inkscape:groupmode="layer"
     id="layer1"
     transform="translate(-67.379884,-156.4321)">
    <g
       aria-label="Rafflist"
       id="text835"
       style="font-style:normal;font-variant:normal;font-weight:normal;font-stretch:normal;font-size:10.5833px;line-height:1.25;font-family:Chango;-inkscape-font-specification:'Chango, Normal';font-variant-ligatures:normal;font-variant-caps:normal;font-variant-numeric:normal;font-variant-east-asian:normal;fill:#ffffff;fill-opacity:1;stroke:none;stroke-width:0.264583"
       transform="matrix(1,0,-0.50641058,1,81.266197,0)">
      <path
         d="m 73.342844,159.08851 0.02117,1.95791 q 0,0.20109 0.222249,0.20109 0.656164,0 1.02658,-0.35984 0.380999,-0.37041 0.380999,-0.86783 0,-0.49741 -0.359832,-0.85724 -0.349249,-0.35984 -1.037164,-0.35984 -0.253999,0 -0.253999,0.28575 z m 2.772824,3.16441 q 0.201083,0.21166 1.428746,1.59808 0.07408,0.0952 0.07408,0.16933 0,0.27517 -0.243416,0.27517 -0.560915,0.0106 -1.132413,0.0106 -0.560915,0 -1.12183,-0.0106 -0.306915,0 -0.560915,-0.24342 l -0.910163,-1.37583 q -0.05292,-0.0635 -0.127,-0.0847 -0.169333,-0.0635 -0.169333,0.13759 v 1.07949 q 0,0.45509 -0.603248,0.48684 -0.592665,0.0317 -1.301746,0.0317 -0.709081,0 -1.714494,-0.0529 -0.306916,-0.0212 -0.497415,-0.21167 -0.179916,-0.1905 -0.211666,-0.43391 -0.08467,-0.93133 -0.08467,-2.92099 0,-2.00025 0.0635,-2.91041 0.0635,-0.91016 0.920747,-0.92075 0.804331,-0.0106 2.190743,-0.0106 1.386412,0 2.296576,0.0212 1.312329,0.0212 2.14841,0.97366 0.836081,0.9525 0.836081,2.14841 0,0.6985 -0.328083,1.29116 -0.317499,0.59267 -0.952497,0.9525 z"
         style="font-style:normal;font-variant:normal;font-weight:normal;font-stretch:normal;font-size:10.5833px;font-family:Chango;-inkscape-font-specification:'Chango, Normal';font-variant-ligatures:normal;font-variant-caps:normal;font-variant-numeric:normal;font-variant-east-asian:normal;fill:#ffffff;stroke-width:0.264583"
         id="path837" />
      <path
         d="m 82.391555,158.72868 q 3.450156,0 3.481906,2.24366 0.02117,0.9525 0.02117,1.74624 0,0.79375 -0.01058,1.06892 -0.01058,0.27516 -0.148166,0.40216 -0.127,0.11642 -0.507999,0.11642 H 82.98422 q -0.338666,0 -0.465665,-0.11642 -0.127,-0.127 -0.137583,-0.37041 0,-0.0106 -0.01058,-0.0318 0,-0.0317 0,-0.0529 -0.698498,0.71966 -1.904994,0.71966 -0.836081,0 -1.428746,-0.41274 -0.582081,-0.42334 -0.582081,-1.15358 0,-0.74083 0.412748,-1.17475 0.423332,-0.4445 0.994831,-0.60325 0.582081,-0.15875 1.238246,-0.15875 0.666747,0 1.301745,0.127 v -0.0423 q 0,-0.52917 -0.211666,-0.762 -0.201082,-0.23283 -0.666747,-0.23283 -0.455082,0 -0.761998,0.0847 -0.306916,0.0741 -0.465665,0.15874 -0.433915,0.254 -0.603248,0.254 -0.169333,0 -0.306916,-0.15875 -0.127,-0.15874 -0.127,-0.48683 0,-0.33866 0.116417,-0.46566 0.126999,-0.127 0.391582,-0.254 0.920747,-0.4445 2.624658,-0.4445 z m -0.497415,4.32857 q 0.465665,0 0.476249,-0.17992 0.02117,-0.34925 0.02117,-0.92074 0,-0.22225 -0.338665,-0.22225 -0.338666,0 -0.550332,0.16933 -0.211666,0.15875 -0.211666,0.47625 0,0.3175 0.169333,0.49741 0.179916,0.17992 0.433915,0.17992 z"
         style="font-style:normal;font-variant:normal;font-weight:normal;font-stretch:normal;font-size:10.5833px;font-family:Chango;-inkscape-font-specification:'Chango, Normal';font-variant-ligatures:normal;font-variant-caps:normal;font-variant-numeric:normal;font-variant-east-asian:normal;fill:#ffffff;stroke-width:0.264583"
         id="path839" />
      <path
         d="m 91.842438,160.59134 h -0.984247 q -0.1905,0 -0.1905,0.22225 v 2.77282 q 0,0.35984 -0.126999,0.52917 -0.127,0.16933 -0.497415,0.16933 h -2.063744 q -0.370415,0 -0.497415,-0.15875 -0.116416,-0.16933 -0.137583,-0.53975 -0.04233,-0.89958 -0.04233,-2.64582 0,-0.24342 -0.04233,-0.29633 -0.04233,-0.0635 -0.15875,-0.0635 -0.359832,0 -0.359832,-0.64558 0,-0.381 0.105833,-0.508 0.105833,-0.127 0.328082,-0.13759 0.0635,0 0.116417,-0.0529 0.05292,-0.0529 0.05292,-0.11642 v -0.22225 q 0,-2.09549 2.539992,-2.38124 0.507998,-0.0635 1.269996,-0.0635 0.772581,0 1.629828,0.28575 0.370416,0.127 0.370416,0.85725 0,0.71966 -0.338666,0.71966 -0.148166,0 -0.529165,-0.11642 -0.380999,-0.12699 -0.645581,-0.12699 -0.486832,0 -0.730248,0.27516 -0.243416,0.26458 -0.243416,0.65617 0,0.28574 0.232833,0.28574 h 0.952497 q 0.253999,0 0.380999,0.11642 0.126999,0.11642 0.126999,0.53975 0,0.41275 -0.126999,0.52916 -0.116417,0.11642 -0.391582,0.11642 z"
         style="font-style:normal;font-variant:normal;font-weight:normal;font-stretch:normal;font-size:10.5833px;font-family:Chango;-inkscape-font-specification:'Chango, Normal';font-variant-ligatures:normal;font-variant-caps:normal;font-variant-numeric:normal;font-variant-east-asian:normal;fill:#ffffff;stroke-width:0.264583"
         id="path841" />
      <path
         d="m 98.255905,160.59134 h -0.984247 q -0.190499,0 -0.190499,0.22225 v 2.77282 q 0,0.35984 -0.127,0.52917 -0.127,0.16933 -0.497415,0.16933 h -2.063743 q -0.370416,0 -0.497416,-0.15875 -0.116416,-0.16933 -0.137582,-0.53975 -0.04233,-0.89958 -0.04233,-2.64582 0,-0.24342 -0.04233,-0.29633 -0.04233,-0.0635 -0.158749,-0.0635 -0.359832,0 -0.359832,-0.64558 0,-0.381 0.105833,-0.508 0.105833,-0.127 0.328082,-0.13759 0.0635,0 0.116416,-0.0529 0.05292,-0.0529 0.05292,-0.11642 v -0.22225 q 0,-2.09549 2.539992,-2.38124 0.507998,-0.0635 1.269995,-0.0635 0.772581,0 1.629829,0.28575 0.370415,0.127 0.370415,0.85725 0,0.71966 -0.338665,0.71966 -0.148167,0 -0.529165,-0.11642 -0.380999,-0.12699 -0.645582,-0.12699 -0.486832,0 -0.730247,0.27516 -0.243416,0.26458 -0.243416,0.65617 0,0.28574 0.232832,0.28574 h 0.952497 q 0.253999,0 0.380999,0.11642 0.127,0.11642 0.127,0.53975 0,0.41275 -0.127,0.52916 -0.116416,0.11642 -0.391582,0.11642 z"
         style="font-style:normal;font-variant:normal;font-weight:normal;font-stretch:normal;font-size:10.5833px;font-family:Chango;-inkscape-font-specification:'Chango, Normal';font-variant-ligatures:normal;font-variant-caps:normal;font-variant-numeric:normal;font-variant-east-asian:normal;fill:#ffffff;stroke-width:0.264583"
         id="path843" />
      <path
         d="m 100.67947,156.54852 h 2.03199 q 0.34925,0 0.46567,0.16933 0.11642,0.15875 0.14817,0.51858 0.0635,1.27 0.0635,3.51366 0,2.23308 -0.0847,3.07974 -0.0212,0.16933 -0.16933,0.30692 -0.14817,0.13758 -0.52917,0.15875 -0.37041,0.0317 -0.87841,0.0317 -0.508,0 -0.91017,-0.0212 -0.68791,-0.0529 -0.71966,-0.47625 -0.105834,-0.92075 -0.105834,-3.25966 0,-2.34949 0.08466,-3.33374 0.0317,-0.35983 0.13759,-0.51858 0.11641,-0.16933 0.46566,-0.16933 z"
         style="font-style:normal;font-variant:normal;font-weight:normal;font-stretch:normal;font-size:10.5833px;font-family:Chango;-inkscape-font-specification:'Chango, Normal';font-variant-ligatures:normal;font-variant-caps:normal;font-variant-numeric:normal;font-variant-east-asian:normal;fill:#ffffff;stroke-width:0.264583"
         id="path845" />
      <path
         d="m 105.33612,158.92976 h 2.06374 q 0.35984,0 0.47625,0.15875 0.127,0.15875 0.15875,0.70908 0.0423,0.53975 0.0423,1.98966 0,1.43933 -0.0635,2.032 -0.0318,0.17991 -0.17992,0.3175 -0.14817,0.13758 -0.52916,0.15875 -0.37042,0.0317 -0.889,0.0317 -0.51858,0 -0.94192,-0.0317 -0.42333,-0.0212 -0.57149,-0.15875 -0.14817,-0.13759 -0.16934,-0.3175 -0.0741,-0.68792 -0.0741,-2.10608 0,-1.42875 0.0423,-1.94733 0.0423,-0.51858 0.15875,-0.67733 0.11642,-0.15875 0.47625,-0.15875 z m 1.143,-2.49766 q 0.6985,0 1.04774,0.28575 0.35984,0.27517 0.35984,0.762 0,1.143 -1.524,1.143 -0.61383,0 -1.04775,-0.26459 -0.43391,-0.26458 -0.43391,-0.79374 0,-1.13242 1.59808,-1.13242 z"
         style="font-style:normal;font-variant:normal;font-weight:normal;font-stretch:normal;font-size:10.5833px;font-family:Chango;-inkscape-font-specification:'Chango, Normal';font-variant-ligatures:normal;font-variant-caps:normal;font-variant-numeric:normal;font-variant-east-asian:normal;fill:#ffffff;stroke-width:0.264583"
         id="path847" />
      <path
         d="m 111.6755,162.8985 q 0,-0.29633 -0.25399,-0.46567 -0.24342,-0.16933 -0.60325,-0.25399 -0.34925,-0.0953 -0.70908,-0.21167 -0.35984,-0.127 -0.61383,-0.42333 -0.24342,-0.30692 -0.24342,-0.80433 0,-1.9685 3.05857,-1.9685 1.31233,0 2.10608,0.4445 0.254,0.13758 0.35983,0.26458 0.10583,0.11642 0.10583,0.42334 0,0.30691 -0.12699,0.46566 -0.11642,0.14817 -0.24342,0.14817 -0.11642,0 -0.52917,-0.23284 -0.40216,-0.24341 -0.83608,-0.25399 -0.34925,0 -0.34925,0.34924 0,0.23284 0.24342,0.37042 0.24342,0.13758 0.59267,0.24342 0.34924,0.0953 0.69849,0.24341 0.34925,0.13758 0.59267,0.47625 0.24341,0.32808 0.24341,0.83608 0,1.96849 -3.05857,1.96849 -1.49224,0 -2.43416,-0.43391 -0.28575,-0.11642 -0.41275,-0.23283 -0.127,-0.127 -0.127,-0.4445 0,-0.32808 0.127,-0.46567 0.13759,-0.13758 0.22225,-0.13758 0.0953,0 0.61383,0.23283 0.51859,0.23284 1.04775,0.23284 0.52916,0 0.52916,-0.37042 z"
         style="font-style:normal;font-variant:normal;font-weight:normal;font-stretch:normal;font-size:10.5833px;font-family:Chango;-inkscape-font-specification:'Chango, Normal';font-variant-ligatures:normal;font-variant-caps:normal;font-variant-numeric:normal;font-variant-east-asian:normal;fill:#ffffff;stroke-width:0.264583"
         id="path849" />
      <path
         d="m 116.67082,160.43259 q 0,-0.16933 -0.23283,-0.16933 -0.41275,0 -0.48683,-0.27517 -0.0423,-0.13758 -0.0423,-0.42333 0,-0.28575 0.0741,-0.40216 0.0847,-0.127 0.30691,-0.17992 0.23283,-0.0635 0.41275,-0.20108 0.1905,-0.14817 0.762,-0.635 0.58208,-0.48683 0.80433,-0.635 0.23283,-0.14817 0.5715,-0.14817 h 0.52916 q 0.37042,0 0.49742,0.0952 0.127,0.0847 0.127,0.27517 v 1.00541 q 0,0.22225 0.1905,0.22225 h 1.13241 q 0.27516,0 0.39158,0.11642 0.127,0.11641 0.127,0.53975 0,0.41275 -0.127,0.52916 -0.127,0.11642 -0.381,0.11642 h -1.10066 q -0.14817,0 -0.1905,0.0741 -0.0423,0.0741 -0.0423,0.21167 v 1.26999 q 0.0212,0.35984 0.26458,0.60325 0.254,0.24342 0.70908,0.24342 0.22225,0 0.55033,-0.11642 0.32808,-0.127 0.4445,-0.127 0.28575,0 0.28575,0.84667 0,0.61383 -0.32808,0.74083 -0.33867,0.11641 -0.9525,0.1905 -0.61383,0.0741 -1.22766,0.0741 -0.61383,0 -1.17475,-0.0952 -0.55033,-0.10583 -1.00541,-0.35983 -0.889,-0.51858 -0.889,-1.97908 z"
         style="font-style:normal;font-variant:normal;font-weight:normal;font-stretch:normal;font-size:10.5833px;font-family:Chango;-inkscape-font-specification:'Chango, Normal';font-variant-ligatures:normal;font-variant-caps:normal;font-variant-numeric:normal;font-variant-east-asian:normal;fill:#ffffff;stroke-width:0.264583"
         id="path851" />
    </g>
  </g>
</svg>
